<?xml version="1.0" encoding="UTF-8"?>
<svg id="_レイヤー_1" data-name="レイヤー_1" xmlns="http://www.w3.org/2000/svg" version="1.1" viewBox="0 0 142.67 65.53">
  <!-- Generator: Adobe Illustrator 29.7.1, SVG Export Plug-In . SVG Version: 2.1.1 Build 8)  -->
  <defs>
    <style>
      .st0 {
        fill: #00479b;
      }
    </style>
  </defs>
  <g id="_戸上ロゴ" data-name="戸上ロゴ">
    <path id="_パス_12833" data-name="パス_12833" class="st0" d="M61.82,33.53c0,9.59-4.75,13.47-13.06,13.47-5.19,0-12.13-2.68-12.84-8.62h8.97c.23.76.77,1.38,1.49,1.72.71.35,1.49.53,2.29.53,4.31,0,5.14-2.82,5.14-6.47v-1.06c-1.83,2.02-4.44,3.14-7.17,3.08-6.59,0-11.12-5.02-11.12-11.53s4.66-12.23,11.56-12.23c2.6-.15,5.1,1.03,6.64,3.12h.09v-2.38h8v20.37ZM43.8,24.29c-.14,2.66,1.91,4.93,4.57,5.06.19,0,.38,0,.57,0,2.66.18,4.96-1.83,5.14-4.49.01-.19.01-.38,0-.57.11-2.7-1.99-4.99-4.69-5.1-.15,0-.3,0-.45,0-2.7-.14-5,1.94-5.14,4.65,0,.15,0,.3,0,.45"/>
    <path id="_パス_12834" data-name="パス_12834" class="st0" d="M90.03,35.73h-8v-2.51h-.09c-1.41,2.24-4.18,3.26-6.81,3.26-6.68,0-11.39-5.59-11.39-12.06s4.61-12.01,11.3-12.01c2.65-.07,5.19,1.01,6.99,2.95v-2.2h8v22.57ZM72,24.46c-.14,2.66,1.91,4.93,4.57,5.06.19,0,.38,0,.57,0,2.66.18,4.96-1.83,5.14-4.49.01-.19.01-.38,0-.57-.04-2.84-2.37-5.11-5.22-5.07-2.78.04-5.03,2.29-5.07,5.07"/>
    <path id="_パス_12835" data-name="パス_12835" class="st0" d="M101.16,15.97h.09c1.62-2.32,4.3-3.66,7.12-3.56,3.18-.17,6.18,1.51,7.69,4.31,1.57-2.73,4.5-4.38,7.65-4.31,5.71,0,7.69,3.74,7.69,8.93v14.39h-8v-10.78c0-2.33.09-6.16-3.3-6.16-3.69,0-3.82,3.48-3.82,6.16v10.78h-8v-10.78c0-2.51,0-6.34-3.56-6.34s-3.56,3.83-3.56,6.34v10.78h-8V13.16h8v2.82Z"/>
    <path id="_パス_12836" data-name="パス_12836" class="st0" d="M142.25,35.73h-8V13.16h8v22.57ZM142.67,4.49c0,2.48-2.01,4.48-4.49,4.48s-4.48-2.01-4.48-4.49C133.7,2.01,135.71,0,138.19,0c2.47.01,4.47,2.01,4.48,4.49"/>
    <path id="_パス_12837" data-name="パス_12837" class="st0" d="M21.1,35.87c-4.85-1.58-8.45-5.49-8.45-11.29,0-7.73,6.36-12.11,13.64-12.11.45,0,.91.02,1.35.05V2.55H0v10.81h7.14v22.51h13.96Z"/>
    <path id="_パス_12838" data-name="パス_12838" class="st0" d="M26.19,30.34c3.15,0,5.7-2.55,5.7-5.7s-2.55-5.7-5.7-5.7-5.7,2.55-5.7,5.7,2.55,5.7,5.7,5.7h0"/>
  </g>
  <g>
    <g>
      <path d="M4.83,60.23h-2.06v-6.18h-1.7v-1.75h5.47v1.75h-1.7v6.18Z"/>
      <path d="M12.07,57.54c0,1.83-1.51,2.87-3.25,2.87s-3.25-1.03-3.25-2.87,1.51-2.88,3.25-2.88,3.25,1.04,3.25,2.88ZM7.59,57.54c0,.68.45,1.21,1.23,1.21s1.23-.53,1.23-1.21-.45-1.22-1.23-1.22-1.23.56-1.23,1.22Z"/>
      <path d="M18.65,59.71c0,2.29-1.14,3.22-3.12,3.22-1.24,0-2.9-.64-3.07-2.06h2.15c.05.19.19.33.36.41.17.08.37.13.55.13,1.03,0,1.23-.67,1.23-1.55v-.25c-.49.49-1,.74-1.71.74-1.58,0-2.66-1.2-2.66-2.76s1.11-2.92,2.77-2.92c.63,0,1.21.21,1.59.75h.02v-.57h1.91v4.87ZM14.33,57.5c0,.68.45,1.21,1.23,1.21s1.23-.53,1.23-1.21-.45-1.22-1.23-1.22-1.23.56-1.23,1.22Z"/>
      <path d="M25.53,60.23h-1.91v-.6h-.02c-.34.54-1,.78-1.63.78-1.6,0-2.72-1.34-2.72-2.88s1.1-2.87,2.7-2.87c.62,0,1.27.23,1.67.7v-.53h1.91v5.4ZM21.22,57.54c0,.68.45,1.21,1.23,1.21s1.23-.53,1.23-1.21-.45-1.22-1.23-1.22-1.23.56-1.23,1.22Z"/>
      <path d="M28.3,55.51h.02c.45-.6,1.01-.85,1.7-.85.78,0,1.45.32,1.84,1.03.37-.67,1.09-1.03,1.83-1.03,1.37,0,1.84.89,1.84,2.13v3.44h-1.91v-2.58c0-.56.02-1.47-.79-1.47-.88,0-.91.83-.91,1.47v2.58h-1.91v-2.58c0-.6,0-1.51-.85-1.51s-.85.91-.85,1.51v2.58h-1.91v-5.4h1.91v.67Z"/>
      <path d="M38.28,60.23h-1.91v-5.4h1.91v5.4ZM38.39,52.77c0,.59-.48,1.07-1.07,1.07s-1.07-.48-1.07-1.07.48-1.07,1.07-1.07,1.07.48,1.07,1.07Z"/>
      <path d="M44.44,54.05v1.33h2.32v1.75h-2.32v1.37h2.45v1.75h-4.51v-7.93h4.51v1.75h-2.45Z"/>
      <path d="M49.82,60.23h-1.91v-8.73h1.91v8.73Z"/>
      <path d="M56.41,57.86h-4.03c0,.78.41,1.2,1.2,1.2.41,0,.7-.14.91-.49h1.84c-.31,1.27-1.51,1.85-2.74,1.85-1.79,0-3.12-1.01-3.12-2.87s1.23-2.88,2.99-2.88c1.87,0,2.96,1.16,2.96,3v.2ZM54.64,56.75c-.09-.52-.57-.85-1.08-.85-.56,0-1.02.29-1.14.85h2.22Z"/>
      <path d="M60.96,56.59c-.28-.21-.62-.38-.99-.38-.74,0-1.31.57-1.31,1.31s.56,1.33,1.35,1.33c.34,0,.7-.14.96-.37v1.62c-.42.21-.88.3-1.35.3-1.6,0-2.93-1.19-2.93-2.82,0-1.74,1.33-2.93,3.02-2.93.44,0,.88.11,1.26.32v1.62Z"/>
      <path d="M64.04,60.23h-1.91v-3.82h-.62v-1.58h.62v-1.62h1.91v1.62h1.08v1.58h-1.08v3.82Z"/>
      <path d="M67.43,55.72h.02c.37-.66,1-.96,1.75-.96h.37v1.84c-.26-.15-.52-.18-.81-.18-1.06,0-1.33.7-1.33,1.63v2.18h-1.91v-5.4h1.91v.88Z"/>
      <path d="M71.98,60.23h-1.91v-5.4h1.91v5.4ZM72.1,52.77c0,.59-.48,1.07-1.07,1.07s-1.07-.48-1.07-1.07.48-1.07,1.07-1.07,1.07.48,1.07,1.07ZM104.03,59.03c0,.59-.48,1.07-1.07,1.07s-1.07-.48-1.07-1.07.48-1.07,1.07-1.07,1.07.48,1.07,1.07ZM120.71,59.03c0,.59-.48,1.07-1.07,1.07s-1.07-.48-1.07-1.07.48-1.07,1.07-1.07,1.07.48,1.07,1.07ZM142.25,59.03c0,.59-.48,1.07-1.07,1.07s-1.07-.48-1.07-1.07.48-1.07,1.07-1.07,1.07.48,1.07,1.07Z"/>
      <path d="M76.92,56.59c-.28-.21-.62-.38-.99-.38-.74,0-1.31.57-1.31,1.31s.56,1.33,1.35,1.33c.34,0,.7-.14.96-.37v1.62c-.42.21-.88.3-1.35.3-1.6,0-2.93-1.19-2.93-2.82,0-1.74,1.33-2.93,3.02-2.93.44,0,.88.11,1.26.32v1.62Z"/>
    </g>
    <path d="M81.85,52.08h2.04l1.62,4.26,1.71-4.26h2.06l.84,7.97h-2.07l-.22-4.59h-.02l-1.91,4.59h-.82l-1.83-4.59h-.02l-.3,4.59h-2.06l.99-7.97Z"/>
    <path d="M93.23,60.05h-1.92v-3.84h-.68v-1.59h.68v-.69c0-.75.02-1.3.55-1.9.48-.56,1.16-.87,1.89-.87.3,0,.56.05.82.19v1.66c-.22-.1-.42-.18-.68-.18-.5,0-.67.3-.67.91v.88h1.34v1.59h-1.34v3.84Z"/>
    <path d="M100.96,59.53c0,2.31-1.14,3.24-3.14,3.24-1.25,0-2.92-.64-3.09-2.07h2.16c.05.19.19.33.36.41.17.08.37.13.55.13,1.04,0,1.24-.68,1.24-1.55v-.25c-.5.5-1,.74-1.72.74-1.59,0-2.68-1.21-2.68-2.77s1.12-2.94,2.78-2.94c.63,0,1.22.21,1.6.75h.02v-.57h1.92v4.9ZM96.62,57.31c0,.69.45,1.22,1.24,1.22s1.24-.53,1.24-1.22-.45-1.23-1.24-1.23-1.24.56-1.24,1.23Z"/>
    <path d="M111.11,54.76c-.42-.57-1.11-.88-1.82-.88-1.27,0-2.13.97-2.13,2.21s.87,2.17,2.16,2.17c.68,0,1.35-.33,1.79-.85v2.49c-.69.21-1.18.37-1.83.37-1.11,0-2.17-.42-2.99-1.17-.88-.79-1.28-1.83-1.28-3.01,0-1.09.41-2.14,1.17-2.92.78-.8,1.91-1.29,3.04-1.29.67,0,1.28.15,1.89.4v2.49Z"/>
    <path d="M118.27,57.35c0,1.84-1.52,2.89-3.27,2.89s-3.27-1.04-3.27-2.89,1.52-2.9,3.27-2.9,3.27,1.05,3.27,2.9ZM113.76,57.35c0,.69.45,1.22,1.24,1.22s1.24-.53,1.24-1.22-.45-1.23-1.24-1.23-1.24.56-1.24,1.23Z"/>
    <path d="M123.62,58.03l-1.95,3.51h-1.24l1.37-3.51h1.81Z"/>
    <path d="M126.59,58.3h2.49v1.76h-4.56v-7.97h2.07v6.22Z"/>
    <path d="M131.8,60.05h-1.92v-3.84h-.62v-1.59h.62v-1.63h1.92v1.63h1.09v1.59h-1.09v3.84Z"/>
    <path d="M137.37,59.45h-.02c-.34.54-1,.78-1.64.78-1.61,0-2.74-1.34-2.74-2.9s1.11-2.89,2.72-2.89c.62,0,1.28.23,1.68.71v-3.88h1.92v8.78h-1.92v-.6ZM134.96,57.35c0,.69.45,1.22,1.24,1.22s1.24-.53,1.24-1.22-.45-1.23-1.24-1.23-1.24.56-1.24,1.23Z"/>
  </g>
</svg>